<?xml version="1.0" encoding="UTF-8"?>
<svg id="_Слой_2" data-name="Слой 2" xmlns="http://www.w3.org/2000/svg" viewBox="0 0 256 256">
  <defs>
    <style>
      .cls-1 {
        fill: #d14a43;
      }
    </style>
  </defs>
  <g id="_Слой_1-2" data-name="Слой 1">
    <g>
      <path class="cls-1" d="M206,0H50C22.39,0,0,22.39,0,50V206c0,27.61,22.39,50,50,50H206c27.61,0,50-22.39,50-50V50c0-27.61-22.39-50-50-50Zm18,174c0,27.61-22.39,50-50,50H82c-27.61,0-50-22.39-50-50V82c0-27.61,22.39-50,50-50h92c27.61,0,50,22.39,50,50v92Z"/>
      <rect class="cls-1" x="104" y="104" width="48" height="48" rx="18.75" ry="18.75"/>
      <rect class="cls-1" x="164" y="104" width="48" height="48" rx="18.75" ry="18.75"/>
      <rect class="cls-1" x="104" y="44" width="48" height="48" rx="18.75" ry="18.75"/>
      <rect class="cls-1" x="104" y="164" width="48" height="48" rx="18.75" ry="18.75"/>
      <rect class="cls-1" x="44" y="104" width="48" height="48" rx="18.75" ry="18.75"/>
    </g>
  </g>
</svg>