<?xml version="1.0" encoding="UTF-8"?>
<svg id="_Слой_2" data-name="Слой 2" xmlns="http://www.w3.org/2000/svg" viewBox="0 0 256 256">
  <defs>
    <style>
      .cls-1 {
        fill: #d24a43;
      }

      .cls-2 {
        fill: #d14a43;
      }
    </style>
  </defs>
  <g id="_Слой_1-2" data-name="Слой 1">
    <g>
      <path class="cls-2" d="M206,0H50C22.39,0,0,22.39,0,50V206c0,27.61,22.39,50,50,50H206c27.61,0,50-22.39,50-50V50c0-27.61-22.39-50-50-50Zm18,174c0,27.61-22.39,50-50,50H82c-27.61,0-50-22.39-50-50V82c0-27.61,22.39-50,50-50h92c27.61,0,50,22.39,50,50v92Z"/>
      <rect class="cls-2" x="112" y="32" width="32" height="192"/>
      <path class="cls-1" d="M160,32c-8.84,0-16,7.16-16,16v-16h16Z"/>
      <path class="cls-1" d="M96,32c8.84,0,16,7.16,16,16v-16s-16,0-16,0Z"/>
      <path class="cls-1" d="M160,224c-8.84,0-16-7.16-16-16v16h16Z"/>
      <path class="cls-1" d="M96,224c8.84,0,16-7.16,16-16v16s-16,0-16,0Z"/>
    </g>
  </g>
</svg>